<svg height="256" viewBox="0 0 60 60" width="256" xmlns="http://www.w3.org/2000/svg"><g id="Page-1" fill="none" fill-rule="evenodd"><g id="014---Sleepy-Panda" fill-rule="nonzero"><path id="Shape" d="m46 53.96c-.0329597 2.8088504-2.3310441 5.0622251-5.14 5.04h-13.27c-.5083288-.0012977-1.005259-.1507243-1.43-.43-.1420705-.0989591-.275846-.2093239-.4-.33-.7029321-.7010617-.9424673-1.7426505-.6164031-2.6803515.3260643-.9377011 1.1601598-1.6059591 2.1464031-1.7196485 2.3239476-.2331227 4.5921983-.8551169 6.71-1.84 4-2 4-3 8-3h.09c1.96.03 3.9 1.05 3.91 4.96z" fill="#7f8e94"/><path id="Shape" d="m42.09 49h-.09c-.6435152-.0072097-1.286748.0305489-1.925.113 1.576.349 2.917 1.6 2.925 4.847-.0329597 2.8088504-2.3310441 5.0622251-5.14 5.04h3c2.8089559.0222251 5.1070403-2.2311496 5.14-5.04-.01-3.91-1.95-4.93-3.91-4.96z" fill="#545c60"/><path id="Shape" d="m17.64 58.93c-.2571214.0485251-.5183471.0719685-.78.07h-13.27c-1.36966937-.0025001-2.50041174-1.0713636-2.57990957-2.4387262s.91975827-2.5600632 2.27990957-2.7212738c.39-.05.82-.1 1.27-.18 1.85 2.41 5.67 4.83 13.08 5.27z" fill="#7f8e94"/><path id="Shape" d="m4.56 53.66c-.45.08-.88.13-1.27.18-.42731055.0509283-.83487727.2087959-1.185.459 2.016 2.184 5.781 4.23 12.535 4.631-.2571214.0485251-.5183471.0719685-.78.07h3c.2616529.0019685.5228786-.0214749.78-.07-7.41-.44-11.23-2.86-13.08-5.27z" fill="#545c60"/><path id="Shape" d="m42.58 38.82c-.2155374-1.3519692-.5776723-2.6764443-1.08-3.95-1.5246576-3.8230405-4.6330765-6.7964694-8.52-8.15-1.7723811-.6604586-3.6142699-1.116737-5.49-1.36-1.4523047-1.64442-3.3648596-2.8149454-5.49-3.36v2s-1-1-4-1c.5383378.6435506.8694962 1.4348448.95 2.27-.9881064.1627133-1.9543772.4378321-2.88.82-3.1407388 1.3395438-5.5775811 3.932315-6.72 7.15-.30020366.7422496-.56057405 1.4999942-.78 2.27.76503807-.3392548 1.5931202-.5130498 2.43-.51 2.9840565.0005329 5.5142137 2.1939229 5.9380884 5.1477211s-1.3873715 5.7701864-4.2508583 6.609851c-2.86348678.8396646-5.90884659-.5526136-7.1472301-3.2675721-1.26 1.25-2.54 2.23-2.54 6.07.06259951 1.499476.61000411 2.9381675 1.56 4.1 1.85 2.41 5.67 4.83 13.08 5.27h.01c.79.05 1.62.07 2.49.07 2.0145445.0058887 4.0267447-.1378398 6.02-.43-.1420705-.0989591-.275846-.2093239-.4-.33-.7029321-.7010617-.9424673-1.7426505-.6164031-2.6803515.3260643-.9377011 1.1601598-1.6059591 2.1464031-1.7196485 2.3239476-.2331227 4.5921983-.8551169 6.71-1.84 4-2 4-3 8-3h.09c.597688-1.3090501.9079847-2.7309589.91-4.17.0288875-2.0115695-.1116085-4.0220008-.42-6.01zm-14.58 10.18c-3.3137085 0-6-2.6862915-6-6s2.6862915-6 6-6 6 2.6862915 6 6-2.6862915 6-6 6z" fill="#f5f5f5"/><path id="Shape" d="m19 24v-.958c-.306-.026-.637-.042-1-.042.1718235.1955548.3189291.4115111.438.643.2022532.0937026.391225.2137434.562.357z" fill="#cfd8dc"/><path id="Shape" d="m26.5 37.2c-2.4327146-.6392458-5.005921.3067346-6.4453134 2.3694719-1.4393924 2.0627372-1.4393924 4.804319 0 6.8670562 1.4393924 2.0627373 4.0125988 3.0087177 6.4453134 2.3694719-2.6479943-.6813094-4.498931-3.0687622-4.498931-5.803s1.8509367-5.1216906 4.498931-5.803z" fill="#cfd8dc"/><path id="Shape" d="m8.716 35.047c-.048.154-.1.307-.146.463.29893266-.1305494.60836809-.2355901.925-.314-.25593475-.0675063-.51621829-.1172909-.779-.149z" fill="#cfd8dc"/><path id="Shape" d="m42.58 38.82c-.2155374-1.3519692-.5776723-2.6764443-1.08-3.95-1.5246576-3.8230405-4.6330765-6.7964694-8.52-8.15-1.7723811-.6604586-3.6142699-1.116737-5.49-1.36-1.4523047-1.64442-3.3648596-2.8149454-5.49-3.36v1.276c.9259239.5712757 1.7645661 1.2731753 2.49 2.084 1.8757301.243263 3.7176189.6995414 5.49 1.36 3.8869235 1.3535306 6.9953424 4.3269595 8.52 8.15.5023277 1.2735557.8644626 2.5980308 1.08 3.95.3083915 1.9879992.4488875 3.9984305.42 6.01-.0020153 1.4390411-.312312 2.8609499-.91 4.17h-.09c-4 0-4 1-8 3-2.1178017.9848831-4.3860524 1.6068773-6.71 1.84-.9862433.1136894-1.8203388.7819474-2.1464031 1.7196485-.3260642.937701-.086529 1.9792898.6164031 2.6803515.124154.1206761.2579295.2310409.4.33-1.609657.227648-3.2316291.3575527-4.857.389.593.025 1.2.041 1.837.041 2.0145445.0058887 4.0267447-.1378398 6.02-.43-.1420705-.0989591-.275846-.2093239-.4-.33-.7029321-.7010617-.9424673-1.7426505-.6164031-2.6803515.3260643-.9377011 1.1601598-1.6059591 2.1464031-1.7196485 2.3239476-.2331227 4.5921983-.8551169 6.71-1.84 4-2 4-3 8-3h.09c.597688-1.3090501.9079847-2.7309589.91-4.17.0288875-2.0115695-.1116085-4.0220008-.42-6.01z" fill="#cfd8dc"/><path id="Shape" d="m8 47c.51046531-.0019353 1.01858727-.0691472 1.512-.2-1.75411855-.4504154-3.21265204-1.6658599-3.972-3.31-.62496985.551424-1.17408587 1.1832605-1.633 1.879 1.10647072 1.0456504 2.57061416 1.62909 4.093 1.631z" fill="#cfd8dc"/><path id="Shape" d="m17 41c.0011067 2.8236772-1.9667629 5.2660153-4.7260589 5.8655482-2.75929597.5995329-5.56322164-.8060016-6.7339411-3.3755482 1.23633798-1.1254795 2.02468103-2.6595524 2.22-4.32.20038563-1.2343713.47082243-2.456345.81-3.66.76503807-.3392548 1.5931202-.5130498 2.43-.51 3.3137085 0 6 2.6862915 6 6z" fill="#37474f"/><path id="Shape" d="m16.07 26.09c-3.1407388 1.3395438-5.5775811 3.932315-6.72 7.15-1.7107005-1.0733343-2.60773955-3.0704104-2.2737971-5.0621496.33394244-1.9917392 1.83329082-3.5870281 3.8005191-4.0437071 1.9672282-.456679 4.016036.3149289 5.193278 1.9558567z" fill="#ef314c"/><path id="Shape" d="m44 30c.0000629 1.931332-.9306341 3.7443296-2.5 4.87-1.5246576-3.8230405-4.6330765-6.7964694-8.52-8.15 1.4526065-2.2189565 4.1897072-3.2209912 6.731639-2.464409 2.5419317.7565822 4.2855897 3.0922729 4.288361 5.744409z" fill="#ef314c"/><path id="Shape" d="m38 24c-.511154-.0003759-1.0202663.0644813-1.515.193 2.6541732.6780003 4.5121107 3.0676002 4.515 5.807-.0004572.9205522-.2147562 1.8284133-.626 2.652.4366208.7065879.8132716 1.4485163 1.126 2.218 2.1131652-1.5207506 3.0044642-4.2307567 2.2065185-6.708948s-3.1030314-4.1590027-5.7065185-4.161052z" fill="#bb193b"/><path id="Shape" d="m57.98 52.26c-.3081916-.1733633-.6564072-.2630029-1.01-.26h-2.03c-1.72 0-3.45 1.02-3.93 4.8-.0554771.5672734.1331065 1.1313475.5186013 1.5511933.3854949.4198459.9314617.6557771 1.5013987.6488067l-12.17.000163c2.8089559.0220621 5.1070403-2.2313126 5.14-5.040163-.01-3.91-1.95-4.93-3.91-4.96.597688-1.3090501.9079847-2.7309589.91-4.17.0288875-2.0115695-.1116085-4.0220008-.42-6.01 2.1896787.1400946 4.3514865.5670769 6.43 1.27 2.3061997.7529972 4.3725695 2.1018295 5.99 3.91.2104553.2362777.4042545.48688.58.75 1.5463788 2.2003869 2.3837392 4.8206274 2.4 7.51z" fill="#607d8b"/><path id="Shape" d="m51.01 56.8c.424-3.339 1.823-4.523 3.33-4.754-.1217491-.0261344-.2455579-.0415268-.37-.046h-2.03c-1.72 0-3.45 1.02-3.93 4.8-.0554771.5672734.1331065 1.1313475.5186013 1.5511933.3854949.4198459.9314617.6557771 1.5013987.6488067h3c-.569937.0069704-1.1159038-.2289608-1.5013987-.6488067-.3854948-.4198458-.5740784-.9839199-.5186013-1.5511933z" fill="#37474f"/><path id="Shape" d="m55.58 44.75c-.1757455-.26312-.3695447-.5137223-.58-.75-1.6174305-1.8081705-3.6838003-3.1570028-5.99-3.91-2.0785135-.7029231-4.2403213-1.1299054-6.43-1.27.022.13.034.259.054.389 1.1468508.2039714 2.275722.4985613 3.376.881 2.3061997.7529972 4.3725695 2.1018295 5.99 3.91.2104553.2362777.4042545.48688.58.75 1.4982852 2.125718 2.3286641 4.6499304 2.385 7.25h2c.3535928-.0030029.7018084.0866367 1.01.26-.0147951-2.6888376-.8503961-5.3090309-2.395-7.51z" fill="#37474f"/><path id="Shape" d="m59 40c-.0010483 2.1536775-1.3778565 4.0659111-3.42 4.75-.1757455-.26312-.3695447-.5137223-.58-.75-1.6174305-1.8081705-3.6838003-3.1570028-5.99-3.91-.0082476-.0292484-.0116261-.0596546-.01-.09 0-2.7614237 2.2385763-5 5-5s5 2.2385763 5 5z" fill="#f5f5f5"/><path id="Shape" d="m54 35c-.5101742.0069635-1.0161845.0929853-1.5.255 1.6620497.5169079 2.9334068 1.8643784 3.3529122 3.553644.4195054 1.6892657-.0737744 3.474959-1.3009122 4.709356.151.158.3.314.448.482.2104553.2362777.4042545.48688.58.75 2.3368613-.7680302 3.7679589-3.1216984 3.3744725-5.5498581s-2.4946544-4.2094198-4.9544725-4.2001419z" fill="#cfd8dc"/><path id="Shape" d="m59 54v3c-.0104477 1.1119375-.9180302 2.0061075-2.03 2h-3.94c-.569937.0069704-1.1159038-.2289608-1.5013987-.6488067-.3854948-.4198458-.5740784-.9839199-.5186013-1.5511933.48-3.78 2.21-4.8 3.93-4.8h2.03c.5348926-.0055968 1.049931.2023564 1.4309831.5777771.3810521.3754208.5966498.8873062.5990169 1.4222229z" fill="#7f8e94"/><path id="Shape" d="m57.98 52.26c-.3081916-.1733633-.6564072-.2630029-1.01-.26h-2.03c-.2008684.0003216-.4014301.015698-.6.046.2239608.0343775.4404055.1067513.64.214.6274535.3550942 1.016665 1.0190433 1.02 1.74v3c-.0104477 1.1119375-.9180302 2.0061075-2.03 2.0000311l3-.0000311c1.1119698.0061075 2.0195523-.8880625 2.03-2v-3c-.003335-.7209567-.3925465-1.3849058-1.02-1.74z" fill="#545c60"/><circle id="Oval" cx="28" cy="43" fill="#37474f" r="6"/><path id="Shape" d="m39 19h-10c-.8496261.0003986-1.6067732-.5360467-1.8881092-1.3377416-.2813359-.8016949-.0254489-1.6936406.6381092-2.2242584l5.55-4.438h-4.3c-1.1045695 0-2-.8954305-2-2s.8954305-2 2-2h10c.8496261-.00039857 1.6067732.5360467 1.8881092 1.33774159.2813359.8016949.0254489 1.69364061-.6381092 2.22425841l-5.55 4.438h4.3c1.1045695 0 2 .8954305 2 2s-.8954305 2-2 2z" fill="#02a9f4"/><path id="Shape" d="m57 13h-10c-.8496261.0003986-1.6067732-.5360467-1.8881092-1.3377416-.2813359-.8016949-.0254489-1.69364062.6381092-2.2242584l5.55-4.438h-4.3c-1.1045695 0-2-.8954305-2-2s.8954305-2 2-2h10c.8496261-.00039857 1.6067732.5360467 1.8881092 1.33774159.2813359.8016949.0254489 1.69364063-.6381092 2.22425841l-5.55 4.438h4.3c1.1045695 0 2 .8954305 2 2s-.8954305 2-2 2z" fill="#02a9f4"/><g fill="#000"><path id="Shape" d="m60 40c-.0013953-3.0732733-2.3247674-5.6486191-5.3816783-5.9653308-3.056911-.3167116-5.8589053 1.72762-6.4903217 4.7353308-1.5296372-.4276979-3.0945864-.7171935-4.676-.865-.1859913-.9249544-.4372873-1.8355679-.752-2.725 1.9449997-1.7570476 2.7443077-4.4541265 2.0707356-6.9872157s-2.7069445-4.4769319-5.2677775-5.0358365c-2.5608331-.5589046-5.2192123.3609582-6.8869581 2.3830522-1.5049749-.5133454-3.0537648-.8879069-4.627-1.119-1.5548987-1.6514892-3.5468366-2.8274401-5.744-3.391-.2990641-.075574-.6162687-.0088993-.8595985.1806829-.2433297.1895822-.3855486.4808519-.3854015.7893171v.394c-.9748082-.2799547-1.9859615-.4127529-3-.394-.3964433.0034481-.753414.2407748-.91.605-.1569756.367238-.0837637.7924151.187 1.086.1992273.2403465.3539844.514304.457.809-.474.114-.924.25-1.357.4-1.6834563-1.795492-4.2927064-2.3807684-6.58177567-1.4763467s-3.79363127 3.115084-3.79522433 5.5763467c-.005251 1.7727248.779565 3.4556254 2.141 4.591-.6196396 1.7576171-1.07753957 3.5681296-1.368 5.409-.16110275 1.4625518-.8540119 2.8149168-1.947 3.8-.011.011-.023.021-.033.032l-.2.193c-1.214 1.183-2.593 2.526-2.593 6.535.01971666 1.1697515.31650034 2.3181605.866 3.351-1.80115094.3693475-3.0299187 2.0427222-2.84311097 3.8718382.18680772 1.8291159 1.72848197 3.2195452 3.56711097 3.2171618h13.27c.2657558-.0034365.5308606-.0271722.793-.071.792.046 1.619.071 2.487.071 1.9499373.0023666 3.8976646-.1312912 5.829-.4.5001251.2603258 1.0551843.3974621 1.619.4h29.385c1.663526.0055402 3.0176356-1.3364911 3.027-3v-3c-.0036569-.8684199-.3873443-1.6917034-1.05-2.253-.0893193-2.3195347-.7439644-4.5821279-1.907-6.591 1.8283929-1.07453 2.9528736-3.0352411 2.957-5.156zm-11.323 1.033c2.1442628.6951365 4.0661135 1.9458921 5.57 3.625.1906713.2150801.3664144.4429448.526.682 1.1880944 1.6686781 1.9158275 3.6207962 2.11 5.66h-1.938c-1.574 0-4.308.737-4.923 5.672-.0521344.4488532.0016363.9036778.157 1.328h-4.767c1.0232651-1.0956797 1.5910482-2.5398082 1.588-4.039-.012-3.964-1.839-5.348-3.531-5.781.3497794-1.0823432.5289245-2.2125432.531-3.35.0229582-1.6303222-.0515078-3.2605599-.223-4.882 1.6683798.1796643 3.3117302.543549 4.9 1.085zm-10.677-16.033c1.9403395-.0040848 3.7071116 1.1169885 4.5297909 2.8742968.8226794 1.7573083.5520774 3.832173-.6937909 5.3197032-1.5616634-3.0418421-4.1142139-5.4599921-7.236-6.855.9222321-.8618081 2.1377707-1.3405158 3.4-1.339zm-30 4c-.00408338-1.5134439.84866609-2.8988492 2.2017001-3.5769555 1.353034-.6781063 2.973285-.5321061 4.1832999.3769555-2.3589963 1.3352396-4.2456996 3.3693852-5.4 5.822-.63614026-.725209-.98630533-1.6573235-.985-2.622zm.746 10.336c.168-.995.373-2.023.641-3.045 1.8744669-.6443065 3.9525639-.1180967 5.2944996 1.3406582 1.3419356 1.4587549 1.6932602 3.5734547.895092 5.3877547-.7981683 1.8143-2.5944856 2.9841838-4.5765916 2.9805871-1.71644566-.0058961-3.31099482-.8880272-4.228-2.339 1.08609281-1.2050323 1.77525237-2.714969 1.974-4.325zm-5.156 18.664c-.8420111-.0026077-1.53580201-.661586-1.58171486-1.5023484-.04591285-.8407625.5719947-1.5713707 1.40871486-1.6656516l.179-.023c.161-.02.344-.051.515-.074 1.27428215 1.4163571 2.84759126 2.5316099 4.606 3.265zm.41-8.44c0-2.526.564-3.578 1.356-4.452 1.9434381 2.6687443 5.4887226 3.6144875 8.503183 2.2683166s4.6765727-4.617387 3.9864911-7.8458441c-.6900815-3.228457-3.5442906-5.534311-6.8456741-5.5304725-.3033841.0020902-.6063285.0234667-.907.064 1.4-3.692 3.944-6.936 9.027-7.809.528775-.0914578.8910997-.5839722.821-1.116-.043291-.338808-.115215-.6733382-.215-1 .5579586.0690071 1.0933878.2620623 1.567.565.2856077.2855256.7149252.3712321 1.0882724.2172564.3733472-.1539756.6174319-.5174063.6187276-.9212564v-.626c1.4331515.5848585 2.7129912 1.4907702 3.741 2.648.1582755.1789214.3753717.2952736.612.328 12.907 1.797 14.647 10.35 14.647 18.48-.0058277 1.089532-.2091143 2.1689837-.6 3.186-1.8726504-.0246997-3.7048626.5453063-5.233 1.628-.693.419-1.48.894-2.616 1.461-2.0138174.9330802-4.1695931 1.5225554-6.378 1.744-1.1152218.1279454-2.1058076.7717126-2.6756434 1.7388615-.5698358.9671488-.6528979 2.1456212-.2243566 3.1831385-1.3728878.1464223-2.7523398.2228546-4.133.229-12.766 0-16.14-5.521-16.14-8.44zm33 8.44h-9.412c-.8400478-.0018801-1.5333074-.6576819-1.581798-1.4963311s.564565-1.569982 1.398798-1.6686689c2.4393843-.247892 4.8198202-.9036781 7.042-1.94 1.207-.6 2.066-1.123 2.756-1.539 1.3845957-1.0127422 3.087115-1.4940046 4.797-1.356 1.283 0 2.99.411 3 3.967.0017357 1.0519678-.4186685 2.0606495-1.167 2.8-.7893229.7874279-1.8580704 1.2306723-2.973 1.233zm21-1c-.0082282.5594082-.4675711 1.0066749-1.027 1h-3.94c-.3033455.0010836-.5925356-.1282143-.794-.355-.1785357-.1971479-.2631247-.4618532-.232-.726.493-3.919 2.332-3.919 2.938-3.919h2.028c.5594289-.0066749 1.0187718.4405918 1.027 1zm-2.1-13.481c-.048-.057-.09-.111-.141-.17-1.555793-1.7428034-3.5119676-3.0812387-5.7-3.9.2605973-1.8652646 1.7894168-3.2946507 3.6679703-3.4294081s3.5957425 1.0617773 4.1199099 2.870747-.2872973 3.7382076-1.9468802 4.6286611z"/><path id="Shape" d="m35 43c0-3.8659932-3.1340068-7-7-7s-7 3.1340068-7 7 3.1340068 7 7 7c3.8641657-.0044086 6.9955914-3.1358343 7-7zm-12 0c0-2.7614237 2.2385763-5 5-5s5 2.2385763 5 5-2.2385763 5-5 5c-2.7600532-.0033061-4.9966939-2.2399468-5-5z"/><path id="Shape" d="m11 43h2c.5522847 0 1-.4477153 1-1s-.4477153-1-1-1h-2c-.5522847 0-1 .4477153-1 1s.4477153 1 1 1z"/><path id="Shape" d="m29 43c0-.5522847-.4477153-1-1-1h-2c-.5522847 0-1 .4477153-1 1s.4477153 1 1 1h2c.5522847 0 1-.4477153 1-1z"/><path id="Shape" d="m18.553 47.105-1.356.678-.49-.49c-.3923789-.3789722-1.0160848-.3735524-1.4018186.0121814s-.3911536 1.0094397-.0121814 1.4018186l1 1c.1874927.1875494.4418052.2929434.707.293.1546883.0013035.3076128-.0329078.447-.1l2-1c.4942949-.2468713.6948713-.8477051.448-1.342s-.8477051-.6948713-1.342-.448z"/><path id="Shape" d="m26.169 17.993c.4217313 1.202292 1.5568872 2.0070458 2.831 2.007h10c1.6568542 0 3-1.3431458 3-3s-1.3431458-3-3-3h-1.448l3.322-2.658c.9943604-.7960159 1.3776608-2.13316027.9560211-3.33508114-.4216398-1.20192088-1.5562889-2.00656104-2.8300211-2.00691886h-10c-1.6568542 0-3 1.34314575-3 3 0 1.6568542 1.3431458 3 3 3h1.448l-3.322 2.658c-.99468.7957547-1.3783817 2.1328971-.957 3.335zm2.206-1.774 5.548-4.438c.3314932-.2650794.4595326-.7105444.3193866-1.1111863-.1401459-.4006419-.5179406-.6691645-.9423866-.6698137h-4.3c-.5522847 0-1-.44771525-1-1s.4477153-1 1-1h10c.424813-.00019929.8033866.26802335.9440546.6688708.1406679.40084745.0127245.84682031-.3190546 1.1121292l-5.548 4.438c-.3314932.2650794-.4595326.7105444-.3193866 1.1111863.1401459.4006419.5179406.6691645.9423866.6698137h4.3c.5522847 0 1 .4477153 1 1s-.4477153 1-1 1h-10c-.424813.0001993-.8033866-.2680233-.9440546-.6688708-.1406679-.4008474-.0127245-.8468203.3190546-1.1121292z"/><path id="Shape" d="m57 8h-1.448l3.322-2.658c.9943604-.79601592 1.3776608-2.13316027.9560211-3.33508114-.4216398-1.20192088-1.5562889-2.00656104-2.8300211-2.00691886h-10c-1.6568542 0-3 1.34314575-3 3s1.3431458 3 3 3h1.448l-3.322 2.658c-.9943604.79601592-1.3776608 2.1331603-.9560211 3.3350811.4216398 1.2019209 1.5562889 2.0065611 2.8300211 2.0069189h10c1.6568542 0 3-1.3431458 3-3 0-1.65685425-1.3431458-3-3-3zm0 4h-10c-.424813.0001993-.8033866-.2680233-.9440546-.6688708-.1406679-.4008474-.0127245-.8468203.3190546-1.1121292l5.548-4.438c.3314932-.26507938.4595326-.71054442.3193866-1.11118634-.1401459-.40064191-.5179406-.66916444-.9423866-.66981366h-4.3c-.5522847 0-1-.44771525-1-1s.4477153-1 1-1h10c.424813-.00019929.8033866.26802335.9440546.6688708.1406679.40084745.0127245.84682031-.3190546 1.1121292l-5.548 4.438c-.3314932.26507938-.4595326.71054442-.3193866 1.11118634.1401459.40064191.5179406.66916444.9423866.66981366h4.3c.5522847 0 1 .4477153 1 1s-.4477153 1-1 1z"/></g></g></g></svg>
